<svg xmlns="http://www.w3.org/2000/svg" viewBox="0 0 26.82 28.8"><defs><style>.cls-1{fill:#93278f;}</style></defs><g id="Layer_2" data-name="Layer 2"><g id="Layer_1-2" data-name="Layer 1"><path class="cls-1" d="M9,13.51,4.78,7.2.55.89A.57.57,0,0,1,.52.3.58.58,0,0,1,1,0H7.85a.64.64,0,0,1,.27.07.51.51,0,0,1,.21.2L10.71,4,13.09,7.8a.55.55,0,0,0,.49.27.54.54,0,0,0,.48-.28L16.31,4,18.56.28a.58.58,0,0,1,.2-.21A.73.73,0,0,1,19.05,0h6.74a.54.54,0,0,1,.5.3.55.55,0,0,1,0,.58l-4.2,6.58L17.87,14a.58.58,0,0,0,0,.62l4.43,6.63,4.42,6.62a.57.57,0,0,1,0,.59.56.56,0,0,1-.51.3H19.56a.5.5,0,0,1-.27-.07.48.48,0,0,1-.21-.19l-2.65-4-2.64-4a.56.56,0,0,0-.49-.25.58.58,0,0,0-.48.26l-2.53,4-2.54,4a.52.52,0,0,1-.2.19.55.55,0,0,1-.28.07H.57a.55.55,0,0,1-.5-.3.58.58,0,0,1,0-.58L4.55,21,9,14.14a.49.49,0,0,0,.09-.31A.62.62,0,0,0,9,13.51Zm11.79,14h2.65a.58.58,0,0,0,.51-.31.55.55,0,0,0,0-.58l-3.48-5.15L17,16.28a.55.55,0,0,0-.46-.25.56.56,0,0,0-.48.23l-.72,1-.72,1a.57.57,0,0,0-.11.33.64.64,0,0,0,.1.33l2.88,4.15,2.87,4.15a.58.58,0,0,0,.47.25ZM23.11,1.34H20.19a.57.57,0,0,0-.28.08.48.48,0,0,0-.2.2L17.27,5.54,14.84,9.47a.53.53,0,0,0-.08.32.5.5,0,0,0,.1.31l.75,1.06.75,1.05a.57.57,0,0,0,.48.25.6.6,0,0,0,.47-.27l3.14-5,3.14-5a.57.57,0,0,0-.48-.88Z"/></g></g></svg>
